<svg width="80" height="80" viewBox="0 0 80 80" fill="none" xmlns="http://www.w3.org/2000/svg">
<rect width="80" height="80" rx="20" fill="#121212"/>
<path d="M39.74 61.51C38.36 61.51 36.92 61.36 35.42 61.06C33.92 60.78 32.44 60.33 30.98 59.71C29.52 59.07 28.15 58.24 26.87 57.22C25.61 56.2 24.54 54.96 23.66 53.5C23.78 53.28 24.12 52.9 24.68 52.36C25.26 51.8 25.93 51.2 26.69 50.56C27.47 49.9 28.23 49.29 28.97 48.73C29.73 48.15 30.34 47.74 30.8 47.5C31.54 48.3 32.27 49.05 32.99 49.75C33.73 50.43 34.49 51.03 35.27 51.55C36.05 52.07 36.86 52.48 37.7 52.78C38.56 53.06 39.46 53.2 40.4 53.2C41.4 53.2 42.19 53.02 42.77 52.66C43.35 52.28 43.76 51.8 44 51.22C44.26 50.64 44.39 50.04 44.39 49.42C44.39 48.96 44.28 48.5 44.06 48.04C43.84 47.58 43.49 47.13 43.01 46.69C42.53 46.23 41.89 45.77 41.09 45.31C40.31 44.85 39.36 44.4 38.24 43.96C35.84 42.98 33.64 41.97 31.64 40.93C29.64 39.87 28.04 38.6 26.84 37.12C25.66 35.64 25.07 33.78 25.07 31.54C25.07 29.14 25.74 27.13 27.08 25.51C28.44 23.87 30.21 22.63 32.39 21.79C34.59 20.95 36.95 20.53 39.47 20.53C41.25 20.53 43 20.71 44.72 21.07C46.46 21.43 48.11 22.02 49.67 22.84C51.25 23.64 52.66 24.74 53.9 26.14C53.58 26.6 53.05 27.24 52.31 28.06C51.59 28.88 50.82 29.7 50 30.52C49.2 31.34 48.51 32 47.93 32.5C47.07 31.66 46.15 30.95 45.17 30.37C44.19 29.77 43.21 29.31 42.23 28.99C41.27 28.67 40.36 28.51 39.5 28.51C38.46 28.51 37.55 28.72 36.77 29.14C35.99 29.56 35.6 30.22 35.6 31.12C35.6 31.5 35.68 31.86 35.84 32.2C36.02 32.54 36.28 32.85 36.62 33.13C36.96 33.41 37.38 33.68 37.88 33.94C38.38 34.2 38.97 34.44 39.65 34.66C41.73 35.38 43.69 36.12 45.53 36.88C47.39 37.64 49.03 38.52 50.45 39.52C51.89 40.5 53.01 41.7 53.81 43.12C54.61 44.54 55.01 46.27 55.01 48.31C55.01 50.31 54.63 52.12 53.87 53.74C53.11 55.36 52.04 56.75 50.66 57.91C49.28 59.05 47.66 59.94 45.8 60.58C43.96 61.2 41.94 61.51 39.74 61.51Z" fill="#00F0FF"/>
</svg>
