<svg width="18" height="19" viewBox="0 0 18 19" fill="none" xmlns="http://www.w3.org/2000/svg">
<g clip-path="url(#clip0_19_61)">
<path d="M1.09878 6.84504C1.44636 6.4963 1.85965 6.21996 2.31473 6.032C2.76982 5.84405 3.25766 5.74821 3.75003 5.75004H15.9L12.675 2.52504C12.5346 2.38401 12.4559 2.19297 12.4564 1.99394C12.4568 1.79492 12.5362 1.60422 12.6773 1.46379C12.8183 1.32335 13.0093 1.2447 13.2084 1.24512C13.4074 1.24554 13.5981 1.32501 13.7385 1.46604L17.451 5.17779C17.8025 5.5294 18 6.00623 18 6.50341C18 7.00059 17.8025 7.47742 17.451 7.82904L13.7385 11.5423C13.6689 11.6121 13.5862 11.6675 13.4951 11.7054C13.4041 11.7433 13.3065 11.7628 13.2078 11.763C13.1092 11.7631 13.0115 11.7438 12.9204 11.7062C12.8292 11.6686 12.7464 11.6134 12.6765 11.5438C12.6067 11.4742 12.5513 11.3914 12.5134 11.3004C12.4755 11.2093 12.456 11.1117 12.4558 11.0131C12.4557 10.9145 12.475 10.8168 12.5126 10.7256C12.5502 10.6345 12.6054 10.5516 12.675 10.4818L15.909 7.25004H3.75003C3.15329 7.25004 2.58099 7.48709 2.15904 7.90904C1.73708 8.331 1.50003 8.9033 1.50003 9.50004V14.75C1.50003 15.3468 1.73708 15.9191 2.15904 16.341C2.58099 16.763 3.15329 17 3.75003 17H14.25C14.4489 17 14.6397 17.0791 14.7804 17.2197C14.921 17.3604 15 17.5511 15 17.75C15 17.9489 14.921 18.1397 14.7804 18.2804C14.6397 18.421 14.4489 18.5 14.25 18.5H3.75003C2.75583 18.4988 1.80269 18.1034 1.09969 17.4004C0.396688 16.6974 0.0012188 15.7442 2.67029e-05 14.75V9.50004C-0.00163841 9.0068 0.0946255 8.51814 0.283236 8.06238C0.471846 7.60663 0.74905 7.19285 1.09878 6.84504Z" fill="white"/>
</g>
<defs>
<clipPath id="clip0_19_61">
<rect width="18" height="18" fill="white" transform="matrix(-1 0 0 1 18 0.5)"/>
</clipPath>
</defs>
</svg>
