<svg width="21" height="25" viewBox="0 0 21 25" fill="none" xmlns="http://www.w3.org/2000/svg">
<path fill-rule="evenodd" clip-rule="evenodd" d="M17.1251 5.875C18.1348 3.7168 18.1172 1.93359 17.1446 0.5L11.0997 10.9902L12.6016 13.6543L17.1251 5.875ZM4.21489 5.875C3.20513 3.7168 3.22271 1.93359 4.19536 0.5L11.5098 13.1934C11.8497 13.6328 12.0606 14.0996 12.0879 14.6035C12.1133 15.0742 11.9786 15.2461 11.9024 15.6563C11.8399 16 11.8751 16.3496 12.1036 16.7109L12.4083 17.0449C12.6817 17.3438 12.9161 17.7031 13.379 17.6445C13.6876 17.6055 13.9473 17.3438 14.1719 16.9238C14.461 16.6055 14.7989 16.3574 15.1856 16.1855C15.5606 16.0195 15.9805 15.9238 16.4512 15.9023C17.9258 15.9785 19.2012 16.666 20.1583 18.3262C21.3184 20.2168 21.1856 21.8145 20.3243 23.2441C19.6602 24.1152 18.8594 24.498 17.9473 24.5C16.5567 24.502 15.4278 23.834 14.5528 22.7949C13.9981 22.1367 13.5372 21.3457 13.0528 20.4648L11.2891 18.2109L11.0821 17.6836L4.21489 5.875ZM10.7129 13.7422C11.0997 13.7422 11.4122 14.0547 11.4122 14.4414C11.4122 14.8281 11.0997 15.1406 10.7129 15.1406C10.3282 15.1406 10.0137 14.8281 10.0137 14.4414C10.0137 14.0547 10.3262 13.7422 10.7129 13.7422ZM15.0586 18.084C15.5567 17.3223 16.3965 17.2422 17.1973 17.5234C17.8399 17.75 18.3946 18.2305 18.8633 18.9531C19.2579 19.5625 19.5645 20.5449 19.4864 21.3965C19.334 23.0469 17.8653 23.3594 16.584 22.6387C16.0137 22.3184 15.5606 21.8438 15.2325 21.1992C15.0118 20.7637 14.8243 20.248 14.754 19.7266C14.6758 19.1504 14.7403 18.5684 15.0586 18.084ZM9.43365 16.2402C9.40044 16.3945 9.33599 16.5508 9.23638 16.709L8.93169 17.043C8.65825 17.3418 8.42388 17.7012 7.96099 17.6426C7.6524 17.6035 7.39263 17.3418 7.16802 16.9219C6.87896 16.6035 6.54107 16.3555 6.15435 16.1836C5.77935 16.0176 5.35943 15.9219 4.88872 15.9004C3.41411 15.9766 2.13872 16.6641 1.18169 18.3242C0.0215355 20.2148 0.154348 21.8125 1.01568 23.2422C1.67974 24.1133 2.48052 24.4961 3.39263 24.498C4.78325 24.5 5.91216 23.832 6.78716 22.793C7.34185 22.1348 7.80279 21.3438 8.28716 20.4629L10.3633 17.8105L10.295 17.6934L10.2735 17.6582L9.43365 16.2402ZM6.28325 18.084C5.78521 17.3223 4.94536 17.2422 4.14458 17.5234C3.502 17.75 2.94732 18.2305 2.47857 18.9531C2.08404 19.5625 1.77739 20.5449 1.85747 21.3984C2.00982 23.0488 3.47857 23.3613 4.75982 22.6406C5.33013 22.3203 5.78325 21.8457 6.11138 21.2012C6.33208 20.7656 6.51958 20.25 6.58989 19.7285C6.66607 19.1504 6.59966 18.5684 6.28325 18.084Z" fill="white"/>
</svg>
