<svg width="19" height="19" viewBox="0 0 19 19" fill="none" xmlns="http://www.w3.org/2000/svg">
<g clip-path="url(#clip0_19_65)">
<path d="M17.3297 6.84504C16.9821 6.4963 16.5688 6.21996 16.1137 6.032C15.6586 5.84405 15.1708 5.74821 14.6784 5.75004V5.75004H2.52844L5.75344 2.52504C5.89387 2.38401 5.97253 2.19297 5.97211 1.99394C5.97169 1.79492 5.89222 1.60422 5.75119 1.46379C5.61016 1.32335 5.41912 1.2447 5.2201 1.24512C5.02108 1.24554 4.83037 1.32501 4.68994 1.46604L0.977441 5.17779C0.625933 5.5294 0.428467 6.00623 0.428467 6.50341C0.428467 7.00059 0.625933 7.47742 0.977441 7.82904L4.68994 11.5423C4.75957 11.6121 4.84228 11.6675 4.93334 11.7054C5.02439 11.7433 5.12201 11.7628 5.22063 11.763C5.31925 11.7631 5.41692 11.7438 5.50809 11.7062C5.59925 11.6686 5.68211 11.6134 5.75194 11.5438C5.82177 11.4742 5.8772 11.3914 5.91507 11.3004C5.95294 11.2093 5.9725 11.1117 5.97264 11.0131C5.97278 10.9145 5.95349 10.8168 5.91588 10.7256C5.87827 10.6345 5.82307 10.5516 5.75344 10.4818L2.51944 7.25004H14.6784C15.2752 7.25004 15.8475 7.48709 16.2694 7.90904C16.6914 8.331 16.9284 8.9033 16.9284 9.50004V14.75C16.9284 15.3468 16.6914 15.9191 16.2694 16.341C15.8475 16.763 15.2752 17 14.6784 17H4.17844C3.97953 17 3.78876 17.0791 3.64811 17.2197C3.50746 17.3604 3.42844 17.5511 3.42844 17.75C3.42844 17.9489 3.50746 18.1397 3.64811 18.2804C3.78876 18.421 3.97953 18.5 4.17844 18.5H14.6784C15.6726 18.4988 16.6258 18.1034 17.3288 17.4004C18.0318 16.6974 18.4272 15.7442 18.4284 14.75V9.50004C18.4301 9.0068 18.3338 8.51814 18.1452 8.06238C17.9566 7.60663 17.6794 7.19285 17.3297 6.84504Z" fill="white"/>
</g>
<defs>
<clipPath id="clip0_19_65">
<rect width="18" height="18" fill="white" transform="translate(0.428467 0.5)"/>
</clipPath>
</defs>
</svg>
