<svg width="80" height="80" viewBox="0 0 80 80" fill="none" xmlns="http://www.w3.org/2000/svg">
<rect width="80" height="80" rx="20" fill="#00F0FF"/>
<g clip-path="url(#clip0_196_39)">
<path d="M19.5 34.375V34.875H20H21.2083V60V60.5H21.7083H59.2917H59.7917V60V34.875H61H61.5V34.375V24.125C61.5 22.6332 60.9074 21.2024 59.8525 20.1475C58.7976 19.0926 57.3668 18.5 55.875 18.5H25.125C23.6332 18.5 22.2024 19.0926 21.1475 20.1475C20.0926 21.2024 19.5 22.6332 19.5 24.125V34.375ZM23.9167 24.125C23.9167 23.8045 24.044 23.4972 24.2706 23.2706C24.4972 23.044 24.8045 22.9167 25.125 22.9167H55.875C56.1955 22.9167 56.5028 23.044 56.7294 23.2706C56.956 23.4972 57.0833 23.8045 57.0833 24.125V30.4583H23.9167V24.125ZM55.375 56.0833H25.625V34.875H55.375V56.0833Z" fill="#121212" stroke="#121212"/>
<path d="M34.1666 40H46.8333V42.4167H34.1666V40Z" fill="#121212" stroke="#121212"/>
</g>
<defs>
<clipPath id="clip0_196_39">
<rect width="41" height="41" fill="white" transform="translate(20 19)"/>
</clipPath>
</defs>
</svg>
