<svg width="251" height="160" viewBox="0 0 251 160" fill="none" xmlns="http://www.w3.org/2000/svg">
<g clip-path="url(#clip0_412_387)">
<path d="M84.3254 63.9258L84.2619 64.4217L84.7579 64.4852L87.7749 64.8712L81.0171 117.691L80.9536 118.187L81.4496 118.25L158.736 128.138L159.232 128.202L159.296 127.706L166.054 74.8864L169.071 75.2724L169.567 75.3359L169.63 74.8399L172.359 53.5138C172.737 50.5561 171.939 47.5698 170.138 45.2119C168.337 42.8539 165.68 41.3176 162.751 40.9429L99.5167 32.8524C96.5881 32.4778 93.6301 33.2957 91.2932 35.1243C88.9566 36.9528 87.4323 39.6419 87.0539 42.5996L84.3254 63.9258ZM95.0719 43.6255C95.1759 42.8125 95.5948 42.0748 96.2346 41.5741C96.8741 41.0736 97.682 40.8509 98.4802 40.9531L161.715 49.0435C162.513 49.1456 163.239 49.5645 163.732 50.2099C164.225 50.8555 164.445 51.6749 164.341 52.4879L162.585 66.2094L93.3163 57.347L95.0719 43.6255ZM152.251 119.075L90.008 111.112L95.7929 65.8971L158.036 73.8606L152.251 119.075Z" fill="black" stroke="black"/>
<path d="M111.994 78.8075L139.106 82.2763L138.323 88.3931L111.211 84.9243L111.994 78.8075Z" fill="black" stroke="black"/>
</g>
<rect x="1.75" y="1" width="248" height="158" rx="4" stroke="#121212" stroke-width="2"/>
<defs>
<clipPath id="clip0_412_387">
<rect width="85" height="86" fill="white" transform="translate(88.9141 32) rotate(7.29098)"/>
</clipPath>
</defs>
</svg>
