<svg width="251" height="161" viewBox="0 0 251 161" fill="none" xmlns="http://www.w3.org/2000/svg">
<rect x="1.25" y="1.5" width="248" height="158" rx="4" stroke="#121212" stroke-width="2"/>
<g clip-path="url(#clip0_412_442)">
<path d="M109.755 74.1006C110.906 74.2754 111.929 74.0329 112.826 73.3729C113.722 72.713 114.258 71.8078 114.433 70.6574C114.608 69.5069 114.365 68.4835 113.705 67.587C113.045 66.6905 112.14 66.1548 110.99 65.9799C109.839 65.8051 108.816 66.0476 107.919 66.7076C107.023 67.3675 106.487 68.2727 106.312 69.4231C106.137 70.5735 106.38 71.597 107.04 72.4935C107.7 73.39 108.605 73.9257 109.755 74.1006ZM125.997 76.5691C127.147 76.744 128.171 76.5014 129.067 75.8415C129.964 75.1815 130.499 74.2763 130.674 73.1259C130.849 71.9755 130.606 70.952 129.946 70.0555C129.286 69.159 128.381 68.6233 127.231 68.4485C126.08 68.2736 125.057 68.5161 124.16 69.1761C123.264 69.836 122.728 70.7412 122.553 71.8916C122.379 73.0421 122.621 74.0655 123.281 74.962C123.941 75.8586 124.846 76.3942 125.997 76.5691ZM142.238 79.0376C143.388 79.2125 144.412 78.9699 145.308 78.31C146.205 77.6501 146.74 76.7449 146.915 75.5945C147.09 74.444 146.848 73.4206 146.188 72.524C145.528 71.6275 144.623 71.0918 143.472 70.917C142.322 70.7421 141.298 70.9847 140.402 71.6446C139.505 72.3046 138.97 73.2098 138.795 74.3602C138.62 75.5106 138.862 76.5341 139.522 77.4306C140.182 78.3271 141.087 78.8628 142.238 79.0376ZM78.6049 115.061L89.7133 41.9755C90.0528 39.7423 91.1385 37.9514 92.9705 36.6029C94.8025 35.2543 96.8351 34.7497 99.0682 35.0891L164.033 44.9633C166.267 45.3027 168.057 46.3884 169.406 48.2204C170.755 50.0524 171.259 52.085 170.92 54.3182L163.514 103.042C163.175 105.275 162.089 107.066 160.257 108.415C158.425 109.763 156.392 110.268 154.159 109.928L97.3147 101.289L78.6049 115.061ZM95.0977 92.6433L155.394 101.808L162.799 53.0839L97.834 43.2098L89.7341 96.5015L95.0977 92.6433Z" fill="black"/>
</g>
<defs>
<clipPath id="clip0_412_442">
<rect width="98.5669" height="98.5669" fill="white" transform="translate(84.0612 24.5) rotate(8.64233)"/>
</clipPath>
</defs>
</svg>
