<svg width="251" height="160" viewBox="0 0 251 160" fill="none" xmlns="http://www.w3.org/2000/svg">
<rect x="1.75" y="1" width="248" height="158" rx="4" stroke="#121212" stroke-width="2"/>
<g clip-path="url(#clip0_412_418)">
<path d="M142.559 29.7465L90.2388 44.5537C87.4635 45.3391 85.114 47.1948 83.707 49.7126C82.3 52.2304 81.9508 55.2039 82.7362 57.9791L100.505 120.763C101.29 123.538 103.146 125.888 105.664 127.295C108.181 128.702 111.155 129.051 113.93 128.266L173.226 111.484L151.509 34.7483C150.986 32.8981 149.748 31.3317 148.07 30.3937C146.391 29.4557 144.409 29.2229 142.559 29.7465V29.7465ZM160.327 92.5306L118.471 104.376L102.677 48.5683L144.533 36.7226L160.327 92.5306ZM92.213 51.5297L95.7011 50.5426L111.495 106.351L108.067 107.321C106.858 107.674 105.721 108.235 104.704 108.977L89.7122 56.0049C89.4504 55.0798 89.5668 54.0886 90.0358 53.2493C90.5048 52.4101 91.288 51.7915 92.213 51.5297ZM111.956 121.29C111.036 121.55 110.05 121.437 109.213 120.973C108.376 120.51 107.756 119.735 107.489 118.817L107.541 118.802C107.407 118.343 107.365 117.861 107.418 117.386C107.471 116.91 107.618 116.45 107.85 116.031C108.081 115.613 108.394 115.244 108.769 114.947C109.143 114.649 109.574 114.429 110.034 114.299L162.302 99.5066L164.276 106.483L111.956 121.29Z" fill="black"/>
</g>
<defs>
<clipPath id="clip0_412_418">
<rect width="87" height="87" fill="white" transform="translate(72.7982 49.4896) rotate(-15.8021)"/>
</clipPath>
</defs>
</svg>
