<svg width="251" height="160" viewBox="0 0 251 160" fill="none" xmlns="http://www.w3.org/2000/svg">
<rect x="1.25" y="1" width="248" height="158" rx="4" stroke="#121212" stroke-width="2"/>
<g clip-path="url(#clip0_412_404)">
<path d="M94.1112 114.048C90.9591 113.574 87.9577 112.336 85.1072 110.332C82.2566 108.327 80.0751 105.923 78.5627 103.117C80.3839 103.39 82.348 102.951 84.455 101.799C86.562 100.648 87.8207 98.7057 88.2311 95.9738C88.7573 92.4715 90.4304 89.6786 93.2503 87.5953C96.0703 85.5119 99.2315 84.7334 102.734 85.2595C106.236 85.7857 109.029 87.4588 111.112 90.2787C113.196 93.0987 113.974 96.2599 113.448 99.7622C112.754 104.385 110.513 108.096 106.726 110.893C102.939 113.691 98.7343 114.743 94.1112 114.048ZM95.374 105.642C97.6856 105.99 99.7881 105.464 101.681 104.065C103.575 102.666 104.695 100.811 105.042 98.4994C105.221 97.3086 104.969 96.2499 104.284 95.3234C103.6 94.3968 102.662 93.8441 101.471 93.6652C100.28 93.4863 99.2216 93.7391 98.295 94.4236C97.3684 95.1082 96.8157 96.0458 96.6368 97.2366C96.3948 98.8477 95.9812 100.29 95.3959 101.563C94.8107 102.836 94.1135 104.02 93.3042 105.116C93.6334 105.309 93.9731 105.432 94.3233 105.484L95.374 105.642ZM122.066 92.4615L112.244 79.1674L155.511 47.203C156.397 46.5482 157.421 46.2901 158.582 46.4288C159.743 46.5674 160.681 47.1201 161.395 48.0869L166.216 54.6132C166.931 55.58 167.204 56.6238 167.035 57.7446C166.867 58.8653 166.299 59.7828 165.332 60.4971L122.066 92.4615Z" fill="black"/>
</g>
<defs>
<clipPath id="clip0_412_404">
<rect width="102" height="102" fill="white" transform="translate(82.1536 22) rotate(8.54375)"/>
</clipPath>
</defs>
</svg>
