<svg width="80" height="80" viewBox="0 0 80 80" fill="none" xmlns="http://www.w3.org/2000/svg">
<rect width="80" height="80" rx="20" fill="#00F0FF"/>
<path d="M24.9547 56.1328V56.1339C24.9543 56.3185 25.0092 56.4995 25.1131 56.6541C25.217 56.8087 25.3656 56.9303 25.5406 57.0026C25.7157 57.0748 25.9088 57.0943 26.0954 57.0582C26.2818 57.0221 26.4526 56.9324 26.5863 56.8011L24.9547 56.1328ZM24.9547 56.1328V28.5404C24.9547 27.3158 25.4466 26.1402 26.324 25.2726C27.2016 24.4047 28.393 23.9162 29.6365 23.9162H50.367C51.6104 23.9162 52.8019 24.4047 53.6794 25.2726C54.5568 26.1402 55.0487 27.3158 55.0487 28.5404V56.1294L55.0487 56.1305M24.9547 56.1328L55.0487 56.1305M55.0487 56.1305C55.0491 56.3151 54.9942 56.496 54.8903 56.6506C54.7864 56.8053 54.6379 56.9269 54.4628 56.9991C54.2878 57.0714 54.0946 57.0909 53.9081 57.0548C53.7217 57.0187 53.551 56.929 53.4173 56.7978L55.0487 56.1305ZM54.0533 61.4941H54.0536C54.7778 61.4955 55.495 61.3541 56.1635 61.0781C57.156 60.681 58.0056 59.9972 58.601 59.1148C59.1965 58.2323 59.5099 57.1925 59.4998 56.1305V28.5404C59.4998 27.3524 59.2631 26.1762 58.8035 25.079C58.344 23.9817 57.6705 22.9851 56.8218 22.1459C55.9732 21.3067 54.966 20.6413 53.858 20.1874C52.7499 19.7335 51.5625 19.5 50.3635 19.5H29.6365C27.2152 19.5 24.8919 20.4511 23.1781 22.1459C21.4642 23.8409 20.5002 26.1409 20.5002 28.5404V56.1305C20.4906 57.1934 20.8051 58.2341 21.4021 59.1167C21.9985 59.9985 22.8488 60.6814 23.8418 61.0775C24.8258 61.4924 25.9129 61.605 26.9622 61.4008C28.0124 61.1964 28.9769 60.684 29.7298 59.9294C29.7303 59.9288 29.7309 59.9282 29.7315 59.9276L40.0001 49.8258L50.2684 59.9207C50.269 59.9213 50.2696 59.9219 50.2702 59.9226C50.7649 60.4186 51.3536 60.8127 52.0024 61.0823C52.652 61.3522 53.349 61.4921 54.0533 61.4941ZM38.4404 45.1503L26.5864 56.801L53.417 56.7975L41.577 45.1504L41.5769 45.1503C41.1591 44.7397 40.5953 44.5101 40.0086 44.5101C39.422 44.5101 38.8581 44.7396 38.4404 45.1502C38.4404 45.1503 38.4404 45.1503 38.4404 45.1503Z" fill="#121212" stroke="#121212"/>
</svg>
