<svg width="80" height="80" viewBox="0 0 80 80" fill="none" xmlns="http://www.w3.org/2000/svg">
<rect width="80" height="80" rx="20" fill="#00F0FF"/>
<g clip-path="url(#clip0_197_43)">
<path d="M28.5419 19.5H54.1669C54.9404 19.5 55.6823 19.8073 56.2293 20.3543C56.7762 20.9013 57.0835 21.6431 57.0835 22.4167V59.5H28.5419C27.3152 59.5 26.1389 59.0127 25.2715 58.1454C24.4041 57.278 23.9169 56.1016 23.9169 54.875V24.125C23.9169 22.8984 24.4041 21.722 25.2715 20.8546C26.1389 19.9873 27.3152 19.5 28.5419 19.5ZM54.1669 50.25H54.6669V49.75V22.4167V21.9167H54.1669H33.6669H33.1669V22.4167V49.75V50.25H33.6669H54.1669ZM30.7502 22.4167V21.9167H30.2502H28.5419C27.9562 21.9167 27.3945 22.1493 26.9803 22.5635C26.5662 22.9776 26.3335 23.5393 26.3335 24.125V50.0695V50.7881L27.0074 50.5383C27.5087 50.3524 28.0386 50.2548 28.5733 50.25H30.2502H30.7502V49.75V22.4167ZM26.4133 54.3887H26.3295L26.3336 54.8927C26.3382 55.4753 26.5729 56.0325 26.9866 56.4428C27.4002 56.8531 27.9592 57.0834 28.5419 57.0833H54.1669H54.6669V56.5833V53.1667V52.6667H54.1669H28.5675C28.276 52.6667 27.9874 52.7244 27.7183 52.8364C27.4492 52.9485 27.205 53.1128 26.9997 53.3197C26.7944 53.5266 26.6321 53.7722 26.5222 54.0421C26.4763 54.1547 26.44 54.2706 26.4133 54.3887Z" fill="#121212" stroke="black"/>
</g>
<defs>
<clipPath id="clip0_197_43">
<rect width="41" height="41" fill="white" transform="translate(20 19)"/>
</clipPath>
</defs>
</svg>
