<svg width="21" height="18" viewBox="0 0 21 18" fill="none" xmlns="http://www.w3.org/2000/svg">
<path d="M19.1817 6.42998L5.18173 0.64998C4.652 0.430767 4.07056 0.367924 3.50623 0.468893C2.9419 0.569861 2.41832 0.830412 1.99747 1.2197C1.57662 1.60899 1.27612 2.11071 1.13155 2.66547C0.986981 3.22024 1.00439 3.80481 1.18173 4.34998L2.72173 9.19998L1.14173 14.05C0.9596 14.5973 0.939141 15.1856 1.0828 15.7443C1.22646 16.303 1.52815 16.8084 1.95173 17.2C2.49637 17.705 3.20901 17.9901 3.95173 18C4.34646 17.9997 4.73726 17.9216 5.10173 17.77L19.1517 11.99C19.6989 11.7624 20.1664 11.3779 20.4953 10.8849C20.8242 10.3919 20.9997 9.8126 20.9997 9.21998C20.9997 8.62736 20.8242 8.04802 20.4953 7.55505C20.1664 7.06207 19.6989 6.67754 19.1517 6.44998L19.1817 6.42998ZM4.37173 15.9C4.19533 15.9727 4.00179 15.9935 3.81397 15.9599C3.62614 15.9262 3.45187 15.8395 3.31173 15.71C3.17971 15.5838 3.08476 15.4239 3.03716 15.2477C2.98957 15.0714 2.99115 14.8854 3.04173 14.71L4.50173 10.2H18.2317L4.37173 15.9ZM4.50173 8.19998L3.01173 3.72998C2.96115 3.55453 2.95957 3.36858 3.00716 3.1923C3.05476 3.01601 3.14971 2.85613 3.28173 2.72998C3.37583 2.63126 3.48914 2.55283 3.61468 2.49952C3.74022 2.44621 3.87534 2.41914 4.01173 2.41998C4.14578 2.42024 4.2784 2.44744 4.40173 2.49998L18.2317 8.19998H4.50173Z" fill="#1E1E1E"/>
</svg>
