<svg width="80" height="80" viewBox="0 0 80 80" fill="none" xmlns="http://www.w3.org/2000/svg">
<rect width="80" height="80" rx="20" fill="#00F0FF"/>
<path d="M54.0519 61.9941L54.0526 61.9941C54.8416 61.9956 55.6232 61.8418 56.3519 61.5413C57.4357 61.107 58.3642 60.3596 59.0155 59.3945C59.667 58.429 60.0104 57.2908 59.9998 56.1279V28.5404C59.9998 27.286 59.7499 26.0441 59.2647 24.8858C58.7796 23.7275 58.0687 22.6758 57.1734 21.7904C56.2781 20.905 55.2158 20.2033 54.0475 19.7247C52.8792 19.2462 51.6274 19 50.3635 19H29.6365C27.0844 19 24.6345 20.0025 22.8266 21.7904C21.0182 23.5787 20.0002 26.0065 20.0002 28.5404V56.1283C19.9902 57.2922 20.3348 58.4311 20.9879 59.3968C21.6399 60.3608 22.5686 61.1069 23.652 61.5401C24.7264 61.9921 25.9127 62.1144 27.0577 61.8916C28.2046 61.6684 29.2586 61.109 30.0821 60.2842C30.0833 60.283 30.0845 60.2818 30.0857 60.2806L40.0002 50.5271L49.9141 60.2736C49.9155 60.2749 49.9168 60.2762 49.9181 60.2776C50.459 60.8194 51.1022 61.2497 51.8105 61.544C52.5206 61.8391 53.2824 61.992 54.0519 61.9941ZM25.4547 56.135V56.1328V28.5404C25.4547 27.4502 25.8926 26.4024 26.6756 25.6281C27.459 24.8534 28.5238 24.4162 29.6365 24.4162H50.367C51.4796 24.4162 52.5445 24.8534 53.3279 25.6281C54.1109 26.4024 54.5487 27.4502 54.5487 28.5404V56.1294L54.5487 56.1316C54.5489 56.2161 54.5238 56.2996 54.4753 56.3718C54.4268 56.444 54.3565 56.5021 54.272 56.537C54.1875 56.5719 54.0937 56.5814 54.003 56.5639C53.9126 56.5464 53.831 56.5031 53.7678 56.4412C53.7676 56.4411 53.7675 56.4409 53.7673 56.4408L41.9276 44.794L41.9274 44.7937C41.4156 44.2906 40.7256 44.0101 40.0086 44.0101C39.2917 44.0101 38.6017 44.2906 38.0899 44.7936C38.0899 44.7937 38.0899 44.7937 38.0899 44.7937L26.2361 56.4442C26.1728 56.5063 26.091 56.5498 26.0004 56.5673C25.9097 56.5848 25.816 56.5753 25.7314 56.5404C25.647 56.5055 25.5766 56.4474 25.5281 56.3752C25.4796 56.303 25.4545 56.2195 25.4547 56.135Z" fill="#121212" stroke="#121212" stroke-width="2"/>
</svg>
