<svg width="25" height="60" viewBox="0 0 25 60" fill="none" xmlns="http://www.w3.org/2000/svg">
<path d="M18.54 9.74C19.68 10.4 20.66 11.38 21.48 12.68C22.3 13.98 22.87 15.13 23.19 16.13C20.43 18.13 17.87 20.07 15.51 21.95C13.15 23.81 10.59 25.9 7.83 28.22L7.86 25.64C8.46 25.84 9.35 26.16 10.53 26.6C11.73 27.04 13.01 27.54 14.37 28.1C15.73 28.66 16.99 29.22 18.15 29.78C19.31 30.34 20.17 30.84 20.73 31.28C20.71 32.4 20.55 33.77 20.25 35.39C19.95 36.99 19.62 38.37 19.26 39.53C16.28 38.23 13.23 36.96 10.11 35.72C6.99 34.48 3.79 33.35 0.51 32.33L0.63 24.5C2.19 23.12 3.87 21.65 5.67 20.09C7.47 18.51 9.23 17 10.95 15.56C12.67 14.1 14.2 12.85 15.54 11.81C16.9 10.77 17.9 10.08 18.54 9.74Z" fill="white"/>
</svg>
